# xmcd CD database file
#
# Track frame offsets:
#	150
#	14399
#	39742
#	58004
#	83761
#	99520
#	122093
#	138214
#	152347
#	168674
#	183919
#	203216
#	221628
#	251078
#	273136
#
# Disc length: 3909 seconds
#
# Revision: 0
# Processed by: cddbd v1.5PL3 Copyright (c) Steve Scherf et al.
# Submitted via: CDex 1.51
#
DISCID=cb0f430f
DTITLE=Pim Jacobs - How High The Moon
DYEAR=1900
DGENRE=Jazz
TTITLE0=Waltz For Debby
TTITLE1=Wave
TTITLE2=It Ain't Necessarily So
TTITLE3=Django
TTITLE4=Shiny Stockings
TTITLE5=Stella By Starlight
TTITLE6=How High The Moon
TTITLE7=Alice In Wonderland
TTITLE8=Meditation
TTITLE9=Flying Home
TTITLE10=Slipped Disc
TTITLE11=Gotta Be This Or That
TTITLE12=In A Mellow Tone
TTITLE13=Body And Soul
TTITLE14=A Smooth One
EXTD=
EXTT0=
EXTT1=
EXTT2=
EXTT3=
EXTT4=
EXTT5=
EXTT6=
EXTT7=
EXTT8=
EXTT9=
EXTT10=
EXTT11=
EXTT12=
EXTT13=
EXTT14=
PLAYORDER=
